<?xml version="1.0" encoding="UTF-8" standalone="no"?>
<!-- Created with Inkscape (http://www.inkscape.org/) -->

<svg
   xmlns:dc="http://purl.org/dc/elements/1.1/"
   xmlns:cc="http://creativecommons.org/ns#"
   xmlns:rdf="http://www.w3.org/1999/02/22-rdf-syntax-ns#"
   xmlns:svg="http://www.w3.org/2000/svg"
   xmlns="http://www.w3.org/2000/svg"
   xmlns:sodipodi="http://sodipodi.sourceforge.net/DTD/sodipodi-0.dtd"
   xmlns:inkscape="http://www.inkscape.org/namespaces/inkscape"
   width="130.60245mm"
   height="90.901848mm"
   viewBox="0 0 130.60245 90.901848"
   version="1.1"
   id="svg1824"
   inkscape:version="0.92.5 (0.92.5+69)"
   sodipodi:docname="ox.svg"
   inkscape:export-filename="/home/algot/Documents/runeman.org/clipart/2020/ox-f.png"
   inkscape:export-xdpi="58.345001"
   inkscape:export-ydpi="58.345001">
  <title
     id="title234">Ox Silhouette</title>
  <defs
     id="defs1818" />
  <sodipodi:namedview
     id="base"
     pagecolor="#ffffff"
     bordercolor="#666666"
     borderopacity="1.0"
     inkscape:pageopacity="0.0"
     inkscape:pageshadow="2"
     inkscape:zoom="1"
     inkscape:cx="304.76302"
     inkscape:cy="175.45136"
     inkscape:document-units="mm"
     inkscape:current-layer="layer1"
     showgrid="false"
     inkscape:snap-global="false"
     inkscape:window-width="1366"
     inkscape:window-height="703"
     inkscape:window-x="0"
     inkscape:window-y="0"
     inkscape:window-maximized="1" />
  <metadata
     id="metadata1821">
    <rdf:RDF>
      <cc:Work
         rdf:about="">
        <dc:format>image/svg+xml</dc:format>
        <dc:type
           rdf:resource="http://purl.org/dc/dcmitype/StillImage" />
        <dc:title>Ox Silhouette</dc:title>
        <dc:date>2020-02-10</dc:date>
        <dc:creator>
          <cc:Agent>
            <dc:title>Algot Runeman</dc:title>
          </cc:Agent>
        </dc:creator>
        <dc:rights>
          <cc:Agent>
            <dc:title>Algot Runeman</dc:title>
          </cc:Agent>
        </dc:rights>
        <dc:publisher>
          <cc:Agent>
            <dc:title>runeman.org</dc:title>
          </cc:Agent>
        </dc:publisher>
        <dc:identifier>ox.svg</dc:identifier>
        <dc:language>en-US</dc:language>
        <dc:coverage>worldwide</dc:coverage>
        <cc:license
           rdf:resource="http://creativecommons.org/publicdomain/zero/1.0/" />
      </cc:Work>
      <cc:License
         rdf:about="http://creativecommons.org/publicdomain/zero/1.0/">
        <cc:permits
           rdf:resource="http://creativecommons.org/ns#Reproduction" />
        <cc:permits
           rdf:resource="http://creativecommons.org/ns#Distribution" />
        <cc:permits
           rdf:resource="http://creativecommons.org/ns#DerivativeWorks" />
      </cc:License>
    </rdf:RDF>
  </metadata>
  <g
     inkscape:label="Layer 1"
     inkscape:groupmode="layer"
     id="layer1"
     transform="translate(-30.637006,-61.074537)">
    <path
       style="fill:#000000;stroke:#000000;stroke-width:0.99999994px;stroke-linecap:butt;stroke-linejoin:miter;stroke-opacity:1"
       d="m 584.22266,232.78711 c -2.99556,0.23256 4.8781,9.98683 0.89648,14.51562 -2.96345,12.59298 -13.98743,20.07036 -22.47266,28.82032 -7.26266,2.06182 -14.53908,-1.3077 -20.5371,-0.95117 -6.64063,5.8126 -15.34819,2.23412 -22.82618,4.97265 -6.89193,4.06862 -13.92902,4.2454 -19.8789,-1.59961 -8.37638,-2.56248 -6.526,-12.88176 -5.22071,-19.60156 -1.25726,-4.91403 9.80463,-18.85483 0.66407,-13.23242 -9.34953,1.90656 -11.9428,11.44749 -16.84375,18.38086 -12.44062,-4.20957 -23.62804,-10.92171 -34.70508,-17.85352 -9.69067,-4.13451 -19.29942,-10.12228 -29.79883,-11.41797 -23.9661,-2.65925 -48.88371,-6.42277 -71.9668,0.28125 -10.65669,3.09502 -17.4887,13.30729 -26.87109,19.0918 -17.63606,0.70179 -35.37966,0.60996 -52.38672,5.96484 -22.89699,7.06599 -47.5864,2.34345 -70.26562,10.32032 -11.92151,4.35464 -26.34546,2.07852 -35.70508,11.89453 -9.39037,5.15681 -15.09048,13.82434 -20.54102,22.73047 0.49482,14.66211 0.0812,29.37044 1.25195,43.99804 2.57315,19.57818 0.74635,40.03261 8.25391,58.62891 0.82573,6.54724 9.82902,12.67953 2.76367,18.39648 -3.63337,8.06291 -12.11642,13.79046 -14.09179,22.25196 -0.5692,28.31036 -7.32001,56.0048 -13.33985,83.4707 -8.47318,6.99662 -2.28797,10.7793 0.28321,14.71484 -1.96097,5.49906 -7.61785,12.79122 -1.5918,17.8711 7.08828,6.19271 15.86052,8.18603 24.95703,9.36914 -2.92,-10.10211 -4.68422,-20.43322 -6.01172,-30.85157 1.46037,-14.15318 7.10851,-28.06944 10.12891,-42.14648 1.83655,-14.17145 10.8302,-25.31361 17.80273,-37.31055 2.41466,7.05823 4.82949,14.1156 7.24414,21.17383 4.92919,17.48772 7.35389,35.74239 10.01172,53.72852 3.5485,4.6032 9.90428,5.92432 10.30664,15.35156 6.42321,2.50904 15.24569,1.79511 22.375,1.24023 10.49691,-1.98769 -2.11974,-9.8887 -4.29883,-14.59765 -7.85893,-7.91127 -11.93659,-18.36168 -13.67382,-29.21875 -2.0856,-11.35567 -4.88902,-22.48864 -3.67969,-34.16602 -0.49701,-12.24744 6.18535,-22.47606 12.95117,-32.08789 6.65117,-8.54929 12.83408,-17.99993 11.92773,-29.37695 -1.59326,-7.83269 5.40304,-13.23759 12.81055,-12.05078 10.28998,3.41091 21.25646,7.24641 30.52735,13.25586 6.32358,2.92203 11.66132,9.33864 17.05664,11.39257 6.8961,-1.53995 12.20689,-8.26207 20.29687,-5.02929 14.79444,2.83351 28.90692,-2.53528 42.21484,-8.40625 11.85431,2.62609 23.91485,3.72005 36,4.63281 7.06836,0.5449 4.17091,12.8677 13.4961,13.75195 0.36933,10.15639 0.74011,20.31432 1.10937,30.47071 1.73791,18.09396 -3.35987,35.64532 -10.58984,52.05078 -5.81364,7.28727 -0.8063,11.81419 2.41016,16.47461 -7.76218,2.69975 -0.61195,12.60949 4.70312,14.11133 6.37206,3.91846 16.19511,-3.94785 18.96289,5.32031 8.66325,4.41037 19.99491,0.75553 29.66797,1.00195 -7.66118,-7.67025 -17.84793,-14.92843 -18.74023,-26.61719 0.73576,-13.94808 -3.49747,-28.69415 3.02539,-41.71289 5.55889,-11.114 5.51454,-23.3502 6.04492,-35.47265 1.54582,-6.01951 -2.94136,-19.40652 7.39062,-14.69727 9.81332,3.77239 18.1137,-3.68645 25.38672,-9.29297 7.6289,-8.5926 19.58158,-6.4218 29.84375,-8.46094 13.03166,-9.88387 18.5312,-27.79572 31.39649,-38.33984 5.47181,-3.57463 11.24955,-15.65519 16.23046,-5.58789 5.45568,6.87868 14.44223,13.38853 23.50391,10.99023 7.60407,-2.95694 14.1691,-1.19349 19.86719,4.50782 8.11585,-0.29258 11.45416,-9.08665 17.61914,-9.55274 6.29238,0.53866 6.79618,-10.68611 9.25,-15.90234 -8.02061,-9.29586 -15.00342,-19.38311 -22.00586,-29.44922 -8.90472,-6.57177 4.36965,-9.5808 0.79297,-18.13867 -3.34065,-6.23914 -13.32712,-10.41105 -3.66797,-15.50195 3.77707,-10.91598 -14.65739,-6.88731 -3.16211,-13.18946 7.52787,-9.40879 11.56237,-21.61337 14.94531,-33.23047 3.92149,-6.65295 -2.62143,-14.645 -7.4082,-18.54101 -2.12799,-1.14165 -3.39856,-1.59664 -4.08984,-1.54297 z m -438.4375,157.16992 6.24218,7.77735 1.41407,14.14257 z m 252.3164,120.91602 4.24219,21.91992 -7.07031,-6.36524 z"
       transform="scale(0.26458333)"
       id="path2380"
       inkscape:connector-curvature="0"
       sodipodi:nodetypes="cccccccccccsccccccccccccccccccccccccccccccccccccccccccccccccccccccccccccccccc" />
  </g>
</svg>
